<?xml version="1.0" encoding="UTF-8" standalone="no"?><!-- Generator: Gravit.io --><svg xmlns="http://www.w3.org/2000/svg" xmlns:xlink="http://www.w3.org/1999/xlink" style="isolation:isolate" viewBox="0 0 150 150" width="150pt" height="150pt"><defs><clipPath id="_clipPath_aeCoJIlL6AdBqO8s1GuVAm42VZovJUfR"><rect width="150" height="150"/></clipPath></defs><g clip-path="url(#_clipPath_aeCoJIlL6AdBqO8s1GuVAm42VZovJUfR)"><g><circle vector-effect="non-scaling-stroke" cx="75" cy="75" r="70" fill="rgb(104,251,216)" fill-opacity="1" stroke="#000" stroke-width="4px"/><path d=" M 93.933 92.413 L 93.933 92.413 L 93.933 92.413 Q 96.822 92.413 103.324 67.009 L 103.324 67.009 L 103.324 67.009 Q 106.936 52.681 107.658 50.996 L 107.658 50.996 L 107.658 50.996 Q 109.825 45.457 113.437 45.457 L 113.437 45.457 L 113.437 45.457 Q 116.929 45.457 116.929 50.273 L 116.929 50.273 L 116.929 50.273 Q 116.929 52.681 114.882 59.905 L 114.882 59.905 L 109.103 81.336 L 109.103 81.336 Q 107.297 88.56 105.912 93.376 L 105.912 93.376 L 105.912 93.376 Q 104.528 98.192 103.565 100.841 L 103.565 100.841 L 103.565 100.841 Q 103.083 101.925 102.24 103.43 L 102.24 103.43 L 102.24 103.43 Q 101.397 104.935 100.254 106.44 L 100.254 106.44 L 100.254 106.44 Q 99.11 107.945 97.725 108.968 L 97.725 108.968 L 97.725 108.968 Q 96.341 109.992 95.016 109.992 L 95.016 109.992 L 95.016 109.992 Q 90.802 109.992 87.792 104.694 L 87.792 104.694 L 87.792 104.694 Q 86.227 102.166 84.24 97.41 L 84.24 97.41 L 84.24 97.41 Q 82.254 92.654 79.725 85.791 L 79.725 85.791 L 79.725 85.791 Q 74.669 72.186 74.307 72.186 L 74.307 72.186 L 74.307 72.186 Q 73.826 72.186 68.408 86.152 L 68.408 86.152 L 68.408 86.152 Q 65.639 93.136 63.833 97.47 L 63.833 97.47 L 63.833 97.47 Q 62.027 101.804 61.063 103.49 L 61.063 103.49 L 61.063 103.49 Q 57.692 109.39 53.599 109.39 L 53.599 109.39 L 53.599 109.39 Q 52.154 109.39 50.829 108.426 L 50.829 108.426 L 50.829 108.426 Q 49.505 107.463 48.421 106.079 L 48.421 106.079 L 48.421 106.079 Q 47.338 104.694 46.495 103.129 L 46.495 103.129 L 46.495 103.129 Q 45.652 101.564 45.291 100.48 L 45.291 100.48 L 45.291 100.48 Q 44.689 98.674 43.425 94.52 L 43.425 94.52 L 43.425 94.52 Q 42.161 90.366 40.656 85.129 L 40.656 85.129 L 40.656 85.129 Q 39.151 79.892 37.585 74.233 L 37.585 74.233 L 37.585 74.233 Q 36.02 68.574 34.756 63.698 L 34.756 63.698 L 34.756 63.698 Q 33.492 58.822 32.709 55.45 L 32.709 55.45 L 32.709 55.45 Q 31.927 52.079 31.927 51.477 L 31.927 51.477 L 31.927 50.032 L 31.927 50.032 Q 31.927 46.059 34.937 46.059 L 34.937 46.059 L 34.937 46.059 Q 38.067 46.059 39.813 47.444 L 39.813 47.444 L 39.813 47.444 Q 41.559 48.828 43.244 52.079 L 43.244 52.079 L 43.244 52.079 Q 43.485 52.681 45.11 57.919 L 45.11 57.919 L 45.11 57.919 Q 46.736 63.156 49.625 73.029 L 49.625 73.029 L 49.625 73.029 Q 55.645 92.895 56.97 92.895 L 56.97 92.895 L 56.97 92.895 Q 57.933 92.895 59.378 88.861 L 59.378 88.861 L 59.378 88.861 Q 60.823 84.828 62.388 79.41 L 62.388 79.41 L 62.388 79.41 Q 63.953 73.992 65.157 68.393 L 65.157 68.393 L 65.157 68.393 Q 66.361 62.795 66.722 59.664 L 66.722 59.664 L 66.722 59.664 Q 67.083 56.534 67.384 54.307 L 67.384 54.307 L 67.384 54.307 Q 67.685 52.079 68.408 50.634 L 68.408 50.634 L 68.408 50.634 Q 69.13 49.19 70.455 48.527 L 70.455 48.527 L 70.455 48.527 Q 71.779 47.865 74.067 47.865 L 74.067 47.865 L 74.067 47.865 Q 76.956 47.865 78.702 48.889 L 78.702 48.889 L 78.702 48.889 Q 80.448 49.912 81.471 51.658 L 81.471 51.658 L 81.471 51.658 Q 82.495 53.404 83.097 55.812 L 83.097 55.812 L 83.097 55.812 Q 83.699 58.22 84.18 61.109 L 84.18 61.109 L 84.18 61.109 Q 84.782 63.999 86.167 69.236 L 86.167 69.236 L 86.167 69.236 Q 87.551 74.474 89.056 79.651 L 89.056 79.651 L 89.056 79.651 Q 90.561 84.828 92.006 88.621 L 92.006 88.621 L 92.006 88.621 Q 93.451 92.413 93.933 92.413 Z " fill="rgb(0,0,0)"/><path d=" M 82.51 103.088 L 82.51 103.088 L 82.51 103.088 Q 82.948 103.598 83.313 104.145 L 83.313 104.145 L 83.313 104.145 Q 83.677 104.692 83.969 105.603 L 83.969 105.603 L 83.969 105.603 Q 84.26 106.515 84.443 107.973 L 84.443 107.973 L 84.443 107.973 Q 84.625 109.431 84.625 111.765 L 84.625 111.765 L 84.625 111.765 Q 84.625 115.483 84.443 119.239 L 84.443 119.239 L 84.443 119.239 Q 84.26 122.994 84.115 125.838 L 84.115 125.838 L 84.115 125.838 Q 84.042 128.39 83.969 130.577 L 83.969 130.577 L 83.969 130.577 Q 83.896 132.765 83.823 134.405 L 83.823 134.405 L 83.823 134.405 Q 83.75 136.046 83.641 136.994 L 83.641 136.994 L 83.641 136.994 Q 83.531 137.942 83.458 138.015 L 83.458 138.015 L 83.458 138.015 Q 83.167 138.233 82.547 137.832 L 82.547 137.832 L 82.547 137.832 Q 81.927 137.431 81.234 136.775 L 81.234 136.775 L 81.234 136.775 Q 80.542 136.119 79.958 135.39 L 79.958 135.39 L 79.958 135.39 Q 79.375 134.66 79.229 134.223 L 79.229 134.223 L 79.229 134.223 Q 79.229 133.858 79.01 132.108 L 79.01 132.108 L 79.01 132.108 Q 77.26 133.129 75.146 133.53 L 75.146 133.53 L 75.146 133.53 Q 73.031 133.931 70.953 133.822 L 70.953 133.822 L 70.953 133.822 Q 68.875 133.713 67.125 133.056 L 67.125 133.056 L 67.125 133.056 Q 65.375 132.4 64.5 131.306 L 64.5 131.306 L 64.5 131.306 Q 64.135 130.869 63.88 129.994 L 63.88 129.994 L 63.88 129.994 Q 63.625 129.119 63.443 127.989 L 63.443 127.989 L 63.443 127.989 Q 63.26 126.858 63.115 125.582 L 63.115 125.582 L 63.115 125.582 Q 62.969 124.306 62.896 123.213 L 62.896 123.213 L 62.896 123.213 Q 62.75 120.369 63.625 118.291 L 63.625 118.291 L 63.625 118.291 Q 64.5 116.213 66.833 115.192 L 66.833 115.192 L 66.833 115.192 Q 67.854 114.754 69.568 114.718 L 69.568 114.718 L 69.568 114.718 Q 71.281 114.681 72.995 114.864 L 72.995 114.864 L 72.995 114.864 Q 74.708 115.046 76.094 115.301 L 76.094 115.301 L 76.094 115.301 Q 77.479 115.556 77.844 115.702 L 77.844 115.702 L 77.844 115.702 Q 77.552 111.983 77.406 109.249 L 77.406 109.249 L 77.406 109.249 Q 77.26 106.515 76.823 105.713 L 76.823 105.713 L 76.823 105.713 Q 76.458 105.202 75.948 104.692 L 75.948 104.692 L 75.948 104.692 Q 75.51 104.327 74.781 103.89 L 74.781 103.89 L 74.781 103.89 Q 74.052 103.452 73.031 103.233 L 73.031 103.233 L 73.031 103.233 Q 72.229 103.088 71.573 103.89 L 71.573 103.89 L 71.573 103.89 Q 70.99 104.619 70.516 106.478 L 70.516 106.478 L 70.516 106.478 Q 70.042 108.338 69.969 112.129 L 69.969 112.129 L 69.969 112.129 Q 67.417 112.202 66.068 112.093 L 66.068 112.093 L 66.068 112.093 Q 64.719 111.983 64.063 111.838 L 64.063 111.838 L 64.063 111.838 Q 63.26 111.692 63.115 111.473 L 63.115 111.473 L 63.115 111.473 Q 62.969 111.181 63.26 109.322 L 63.26 109.322 L 63.26 109.322 Q 63.552 107.463 64.099 105.275 L 64.099 105.275 L 64.099 105.275 Q 64.646 103.088 65.411 101.119 L 65.411 101.119 L 65.411 101.119 Q 66.177 99.15 67.052 98.64 L 67.052 98.64 L 67.052 98.64 Q 68.802 97.619 71.245 97.91 L 71.245 97.91 L 71.245 97.91 Q 73.688 98.202 76.021 99.15 L 76.021 99.15 L 76.021 99.15 Q 78.354 100.098 80.177 101.265 L 80.177 101.265 L 80.177 101.265 Q 82 102.431 82.51 103.088 Z  M 77.99 124.379 L 77.99 124.379 L 77.99 124.379 Q 77.99 124.015 78.063 123.395 L 78.063 123.395 L 78.063 123.395 Q 78.135 122.775 78.135 122.119 L 78.135 122.119 L 78.135 122.119 Q 78.135 121.463 78.099 120.879 L 78.099 120.879 L 78.099 120.879 Q 78.063 120.296 77.917 120.004 L 77.917 120.004 L 77.917 120.004 Q 77.698 119.567 76.641 119.275 L 76.641 119.275 L 76.641 119.275 Q 75.583 118.983 74.271 118.874 L 74.271 118.874 L 74.271 118.874 Q 72.958 118.765 71.792 118.801 L 71.792 118.801 L 71.792 118.801 Q 70.625 118.838 70.188 119.129 L 70.188 119.129 L 70.188 119.129 Q 69.604 119.494 69.349 120.15 L 69.349 120.15 L 69.349 120.15 Q 69.094 120.806 69.021 122.192 L 69.021 122.192 L 69.021 122.192 Q 69.021 122.848 69.094 123.577 L 69.094 123.577 L 69.094 123.577 Q 69.167 124.306 69.276 124.999 L 69.276 124.999 L 69.276 124.999 Q 69.385 125.692 69.568 126.202 L 69.568 126.202 L 69.568 126.202 Q 69.75 126.713 69.969 126.858 L 69.969 126.858 L 69.969 126.858 Q 70.479 127.223 71.755 127.478 L 71.755 127.478 L 71.755 127.478 Q 73.031 127.733 74.344 127.624 L 74.344 127.624 L 74.344 127.624 Q 75.656 127.515 76.75 126.785 L 76.75 126.785 L 76.75 126.785 Q 77.844 126.056 77.99 124.379 Z " fill="rgb(0,0,0)" fill-opacity="0.8"/></g></g></svg>